<?xml version="1.0" encoding="UTF-8" standalone="no" ?>
<!DOCTYPE svg PUBLIC "-//W3C//DTD SVG 1.1//EN" "http://www.w3.org/Graphics/SVG/1.1/DTD/svg11.dtd">
<svg xmlns="http://www.w3.org/2000/svg" xmlns:xlink="http://www.w3.org/1999/xlink" version="1.1" width="480" height="480" viewBox="0 0 48 48" xml:space="preserve">
  <desc>Created with Fabric.js 5.2.4</desc>
  <defs>
  </defs>
  <rect x="0" y="0" width="100%" height="100%" fill="transparent"></rect>
  <g transform="translate(24, 24)">
    <rect style="stroke: none; fill: rgb(255,255,255); visibility: hidden;" x="-24" y="-24" width="48" height="48" />
  </g>
  <g transform="translate(24, 24)">
    <!-- Additional content if any -->
  </g>
  <g transform="translate(0, 0)">
    <g style="">
      <g transform="translate(0, 3.75)">
        <path style="stroke: none; fill: rgb(0,126,195);" d="M 39.9 8.5 L 39.9 45.8 C 39.9 46 39.7 46.3 39.4 46.3 L 37.5 46.3 L 37.5 47 L 36 47 L 36 46.3 L 12 46.3 L 12 47 L 10.5 47 L 10.5 46.3 L 8.6 46.3 C 8.3 46.3 8.1 46.1 8.1 45.8 L 8.1 8.5 L 39.9 8.5 M 24 37 C 30.3 37 35.3 31.9 35.3 25.7 C 35.3 19.5 30.3 14.3 24 14.3 C 17.7 14.3 12.7 19.4 12.7 25.6 C 12.7 25.6 12.7 25.6 12.7 25.6 C 12.7 31.9 17.7 36.9 24 37 M 40.9 7.5 L 7.1 7.5 L 7.1 45.8 C 7.1 46.6 7.7 47.3 8.5 47.3 L 9.4 47.3 L 9.4 48 L 13 48 L 13 47.3 L 35 47.3 L 35 48 L 38.5 48 L 38.5 47.3 L 39.4 47.3 C 40.2 47.3 40.9 46.7 40.9 45.8 L 40.9 7.5 z M 24 36 C 18.3 36 13.7 31.4 13.7 25.7 C 13.7 20 18.3 15.4 24 15.4 C 29.7 15.4 34.3 20 34.3 25.7 C 34.3 25.7 34.3 25.7 34.3 25.7 C 34.3 31.3 29.7 35.9 24 36 z" />
      </g>
      <g transform="translate(0, 1.6)">
        <path style="stroke: none; fill: rgb(0,126,195);" d="M 24 35.2 C 29.3 35.2 33.6 30.9 33.6 25.6 C 33.6 20.3 29.3 16 24 16 C 18.7 16 14.4 20.3 14.4 25.6 C 14.4 25.6 14.4 25.6 14.4 25.6 C 14.4 30.9 18.7 35.2 24 35.2 z M 15.8 25.6 C 15.8 21.1 19.4 17.5 23.9 17.4 C 28 17.4 31.5 20.5 32 24.6 C 25.8 22.5 22 30.6 15.9 27.1 C 15.9 26.6 15.8 26.1 15.8 25.6 z" />
      </g>
      <g transform="translate(0, -20.75)">
        <path style="stroke: none; fill: rgb(0,126,195);" d="M 39.4 0.1 L 8.6 0.1 C 7.8 0.1 7.1 0.7 7.1 1.5 L 7.1 6.4 L 40.9 6.4 L 40.9 1.6 C 40.9 0.7 40.2 0.1 39.4 0.1 z M 12.2 5.4 C 11 5.4 10.1 4.4 10.1 3.2 C 10.1 2 11.1 1.1 12.3 1.1 C 13.5 1.1 14.4 2.1 14.4 3.2 C 14.4 3.2 14.4 3.2 14.4 3.2 C 14.4 4.5 13.4 5.4 12.2 5.4 z M 35.2 4.4 L 32.8 4.4 L 32.8 2.1 L 35.2 2.1 L 35.2 4.4 z M 38.3 4.4 L 36 4.4 L 36 2.1 L 38.4 2.1 L 38.4 4.4 z" />
      </g>
    </g>
  </g>
</svg>
