<svg version="1.1" id="Layer_1" xmlns="http://www.w3.org/2000/svg" xmlns:xlink="http://www.w3.org/1999/xlink" x="0px" y="0px"
     viewBox="0 0 48 48" width="48" height="48" style="enable-background:new 0 0 48 48;" xml:space="preserve">
  <style type="text/css">
    .st0{fill:#007EC3;}
  </style>
  <path class="st0" d="M39.9,8.5v37.3c0,0.2-0.2,0.5-0.5,0.5l0,0h-1.9v0.7h-1.5v-0.7h-24v0.7h-1.5v-0.7H8.6c-0.3,0-0.5-0.2-0.5-0.5V8.5H39.9 M24,37c6.3,0,11.3-5.1,11.3-11.3S30.3,14.3,24,14.3s-11.3,5.1-11.3,11.3c0,0,0,0,0,0C12.7,31.9,17.7,36.9,24,37 M40.9,7.5H7.1v38.3c0,0.8,0.6,1.5,1.4,1.5c0,0,0,0,0,0h0.9v0.7H13v-0.7h22v0.7h3.5v-0.7h0.9c0.8,0,1.5-0.6,1.5-1.5l0,0V7.5z M24,36c-5.7,0-10.3-4.6-10.3-10.3c0-5.7,4.6-10.3,10.3-10.3c5.7,0,10.3,4.6,10.3,10.3c0,0,0,0,0,0C34.3,31.3,29.7,35.9,24,36z"/>
  <path class="st0" d="M24,35.2c5.3,0,9.6-4.3,9.6-9.6c0-5.3-4.3-9.6-9.6-9.6c-5.3,0-9.6,4.3-9.6,9.6c0,0,0,0,0,0C14.4,30.9,18.7,35.2,24,35.2z M15.8,25.6c0-4.5,3.6-8.1,8.1-8.2c4.1,0,7.6,3.1,8.1,7.2c-6.2-2.1-10,6-16.1,2.5C15.9,26.6,15.8,26.1,15.8,25.6z"/>
  <path class="st0" d="M39.4,0.1H8.6c-0.8,0-1.5,0.6-1.5,1.4c0,0,0,0,0,0v4.9h33.8V1.6C40.9,0.7,40.2,0.1,39.4,0.1L39.4,0.1z M12.2,5.4c-1.2,0-2.1-1-2.1-2.2c0-1.2,1-2.1,2.2-2.1c1.2,0,2.1,1,2.1,2.1c0,0,0,0,0,0C14.4,4.5,13.4,5.4,12.2,5.4z M35.2,4.4h-2.4V2.1h2.4V4.4z M38.3,4.4H36V2.1h2.4V4.4z"/>
</svg>
