<?xml version="1.0" encoding="utf-8"?>
<!-- Generator: Adobe Illustrator 25.0.0, SVG Export Plug-In . SVG Version: 6.00 Build 0)  -->
<svg version="1.1" id="Layer_1" xmlns="http://www.w3.org/2000/svg" xmlns:xlink="http://www.w3.org/1999/xlink" x="0px" y="0px"
	 viewBox="0 0 512 512" style="enable-background:new 0 0 512 512;" xml:space="preserve">
<style type="text/css">
	.st0{fill:#FBCC27;}
	.st1{fill:#0381AC;}
	.st2{fill:#0683AD;}
	.st3{fill:#0682A9;}
	.st4{fill:#E7B337;}
	.st5{fill:#FFFFFF;}
</style>
<g>
	<path class="st0" d="M264.4,260.6c0.5-2.4,0.9-4.8,1.4-7.3c0.2-1.1,0.6-2.2,0.2-3.4c-0.9-0.5-1.6,0.1-2.2,0.4
		c-8.7,3.7-17.5,7.3-26.2,11c-0.3,0.1-0.6,0.5-0.9,0.7c-4.7-1.1-9.6-1-14.4-0.9c-3.1,0-6.3,0.1-9.4,0.1c-5.3,0.1-4.8-0.6-4.8,4.8
		c0,2.6,0.6,5.2,0,7.8c-10.9,4.6-21.8,9.1-32.7,13.7c-1.7,0.7-3.4,1.3-5.1,2c-0.4-1.7-0.3-3.4,0-5.1c1.3-6.6,5-11.1,11.5-13
		c3-0.9,6.1-1,9.3-0.4c2.2,0.4,4.3,0.9,6.4,1.8c0.7,0.3,1.3-0.1,1.3-0.9c-0.1-2.5-0.1-5-0.2-7.4c-0.1-1.7-0.4-2.1-1.9-2.4
		c-7.1-1.5-14.2-1.6-21.2,0.8c-1.7,0.6-3.3,1.4-5,2.2c2.1-9.6,4.2-19.1,6.4-28.7c0.6-2.5,0.7-5.2,2-7.5c0.5,3.8,0.6,7.6,0.7,11.3
		c0.1,2.9,0.1,2.9,3.2,2.9c10.5-0.2,20.9-0.5,31.4-0.8c0.1,0,0.3,0,0.4,0c1.6-0.1,1.9-0.3,1.9-1.8c0-0.9,0.1-1.8,0-2.7
		c-0.2-2,0.5-4.2-0.6-6.1c-1.9-0.5-3.9-0.2-5.8-0.2c-4.6,0.1-9.1,0.3-13.7,0.4c-3.6,0.1-3.6,0.1-3.7-3.6c-0.1-2.4-0.1-4.7-0.2-7.1
		c-0.1-4.5-0.5-4.1,4.2-4.2c4.8-0.1,9.7-0.3,14.5-0.4c1.6-0.1,1.8-0.3,1.8-1.9c0-2.2,0-4.4-0.1-6.7c-0.1-2.1-0.2-2.3-2.2-2.3
		c-3.7,0.1-7.3,0.3-11,0.3c-2.4,0-4.9,0.8-7.3-0.3c-0.6-2.4-0.4-4.9-0.6-7.4c0-0.4,0.1-0.8,0.1-1.2c11.3,0,22.7,0,34,0
		c0.1,0.9,0.2,1.8,0.2,2.7c0.1,8.1,0.2,16.2,0.3,24.3c0.1,5.4,0.2,10.7,0.3,16.1c0,1.6,0.4,1.9,1.8,1.9c3.3,0,6.5,0,9.8-0.1
		c1.2,0,1.6-0.5,1.7-1.7c0-0.4,0-0.8,0-1.2c-0.1-6.9-0.1-13.9-0.2-20.8c0-1.4,0-2.9-0.1-4.3c0-0.3,0.1-0.5,0.4-0.5
		c0.2,0,0.6,0.1,0.7,0.2c0.8,1.2,1.6,2.4,2.5,3.5c5.3,7.5,10.5,15,15.7,22.5c1,1.4,2,2.2,3.8,2.2c4.3-0.1,8.6,0,12.9,0
		c0.8,0,1.2-0.6,0.7-1.3c-2.2-3.1-4.4-6.1-6.7-9.2c-5.1-6.8-10.2-13.6-15.2-20.5c-1.2-1.6-1.2-1.6-0.1-3.1c1.7-2.2,3.4-4.3,5.1-6.5
		c0.6,0,1.3,0.1,1.2-0.9l0,0c1,0.9,2,0.1,2.9-0.3c4.3-1.8,8.7-3.6,13-5.5c2.9-1.2,5.7-2.5,8.5-3.8c3.1-0.4,6.3-0.1,9.4,0
		c1.5,0,1.7,0.3,1.7,1.9c0,0.4,0,0.8,0,1.2c-0.2,11.8-0.3,23.5-0.5,35.3c-0.1,3.5-0.2,7.1-0.2,10.6c0,1.8,0.2,2.1,1.9,2.2
		c3.1,0.1,6.3,0.1,9.4,0.1c1.8,0,1.9-0.2,2-2.1c0.2-4.7,0.3-9.4,0.4-14.1c0.2-7.7,0.2-15.4,0.4-23.1c0.1-3.1,0.2-6.3,0.3-9.4
		c0.1-2.2,0.2-2.3,2.6-2.3c3.5,0,7,0.2,10.6,0.3c1.2,0,2.3,0.1,3.5,0.1c0.7,0,1.3-0.3,1.4-1.1c0.1-2.9,0.2-5.7,0.2-8.6
		c0-0.6-0.4-0.9-1-1c-0.6-0.1-1.3-0.1-2-0.1c-4.3-0.2-8.6-0.4-12.9-0.6c0.7-0.4,1.3-0.9,2-1.2c7.3-3.1,14.6-6.2,22-9.3
		c0.4-0.2,0.7-0.3,1.1-0.4c0.5-0.1,1.1-0.4,1.4,0.2c0.2,0.3,0.2,0.7,0.1,1.1c-0.7,2.6-1.5,5.3-2.2,7.9c-7.8,27-15.6,54.1-23.5,81.1
		c-0.2,0.6-0.5,1.2-0.8,1.8c-4.7-0.1-9.4-0.2-14.1-0.3c-2.4,0-2.5,0.1-2.6,2.3c-0.1,3.1-0.2,6.2-0.3,9.4
		c-0.2,12.8-0.5,25.5-0.7,38.3c0,0.5,0,1,0.1,1.6c0.1,0.6,0.5,0.9,1,1c0.5,0.1,1,0.2,1.5,0.2c-7.9,27.2-15.7,54.5-23.6,81.7
		c-1.5,5.1-3,10.3-4.4,15.4c-0.3,1,0.2,1.6,1.2,1.5c0.1,0,0.3,0,0.4,0c7.2-1.1,14.5-2.2,21.7-3.4c1.4-0.2,2.8-0.5,4.3-0.4
		c0.3,1.3-0.7,1.9-1.3,2.6c-5.1,6.3-10.3,12.6-15.4,18.8c-12.5,15.3-25,30.5-37.5,45.8c-1.8,2.2-3.6,4.5-5.5,6.7
		c-0.6,0.7-1,1.6-2.3,1.7c-8.5-30.8-17-61.7-25.5-92.5c-0.1-0.4-0.1-0.8,0.2-1.1c1.1-0.2,1.9,0.6,2.8,1c6.3,3.3,12.5,6.6,18.7,9.9
		c0.7,0.4,1.4,0.8,2.1,1.1c1.4,0.7,1.9,0.5,2.2-1c0.5-2.6,1.1-5.1,1.6-7.7c3.9-18.8,7.7-37.6,11.6-56.4c2-9.6,3.9-19.2,5.9-28.8
		c0.1-0.4,0.2-0.7,0.4-1.1c0.1,1.2,0.1,2.3,0.2,3.5c0.1,1.6,0.2,1.8,1.8,1.8c5,0.1,9.9,0.1,14.9,0.2c4.2,0,8.4,0.1,12.5,0.1
		c1.5,0,1.8-0.3,1.9-1.8c0.1-1.7,0.1-3.4,0.1-5.1c0-2.1-0.1-2.2-2.2-2.3c-0.9,0-1.8,0-2.7,0c-4.4,0-8.9-0.1-13.3-0.1
		c-1.4,0-1.7-0.3-1.7-1.6c0-3.1,0-6.3,0-9.4c0-1.2,0.5-1.6,1.7-1.6c3.5,0,7,0.1,10.6,0c6.1,0,5.3,1,5.4-5.4c0.1-4.1,0.2-3.8-3.8-3.8
		c-4,0-8.1,0-12.1-0.1c-1.3,0-1.6-0.4-1.7-1.7c0-2.9-0.1-5.7,0-8.6c0-1.7,0.4-2.1,2.1-2.1c4.4,0,8.9,0.1,13.3,0.1
		c4,0,3.7,0.3,3.8-3.8c0-6,0.8-5.1-5.1-5.3C275.1,260.8,269.7,260.7,264.4,260.6z"/>
	<path class="st1" d="M214.5,71.4c-9.3,2.8-18.1,6.9-26.4,11.8c-34.2,20.1-57.1,49.2-68.7,87.2c-0.2,0.7-0.4,1.5-0.7,2.2
		c-0.1,0.4-0.3,0.7-0.6,1.2c-2.9,0.2-5.9,0.4-8.9,0.6c-7.6,0.4-15.1,0.9-22.7,1.3c-0.6,0-1.3,0-1.9,0c-0.4-0.1-0.7-0.3-0.6-0.8
		c0.1-0.8,0.2-1.6,0.4-2.3c11.9-51.9,47.6-90.2,83.8-110.6c17.7-10,36.5-16.8,56.5-20.3c15.3-2.7,30.6-3.3,46.1-1.9
		c35.9,3.3,67.9,16.3,95.9,39c21.9,17.7,38,39.8,49.4,65.4c4,9,7.3,18.2,9.8,27.7c0.2,0.8,0.4,1.5,0.6,2.3c0.3,1.3-0.1,1.8-1.3,1.7
		c-3.5-0.2-7.1-0.4-10.6-0.6c-0.7,0-1.3-0.1-2-0.2c-1.6-0.3-3.7,0.5-4.9-0.7c-1-1-1.2-2.8-1.7-4.3c-13.9-46.9-52.8-88.8-108-102.3
		c-4.2-1-8.4-1.7-12.7-2.5c-0.9-0.2-1.8-0.1-2.7-0.1c-0.7-0.2-1.5-0.5-2.2-0.6c-3.8-0.3-7.5-0.7-11.3-0.9
		c-12.7-0.6-25.2,0.5-37.6,3.2C225.6,67.9,219.9,69.2,214.5,71.4z"/>
	<path class="st1" d="M102.7,253.6c4.2-0.3,8.3-0.6,12.5-0.8c3.2-0.2,3.2-0.2,4,2.8c0.7,2.5,1.3,5.1,2,7.6
		c3,10.8,7.9,20.8,13.7,30.2c22.3,35.8,54.1,58.5,95.2,68.1c1.1,0.3,2.3,0.5,3.5,0.7c1.8,0.4,2.1,0.7,1.7,2.3
		c-1.4,7.2-2.9,14.3-4.4,21.5c-0.3,1.3-0.5,1.6-2.3,1.4c-3-0.5-5.9-0.9-8.9-1.6c-52-11.5-91.5-40.2-118.4-86.1
		c-7.5-12.8-13-26.5-16.9-40.8c-0.2-0.9-0.5-1.8-0.7-2.7c-0.2-1,0.1-1.4,1.2-1.5c2.1-0.2,4.2-0.4,6.3-0.5
		C95.2,254,98.9,253.8,102.7,253.6z"/>
	<path class="st1" d="M415.3,254c3.1,0.2,6.3,0.4,9.4,0.7c1.1,0.1,1.4,0.5,1.1,1.6c-2,8.3-4.7,16.3-7.9,24.2
		C396.1,333.3,350,372.3,294.3,385c-3.1,0.7-6.1,1.2-9.2,1.7c-0.6,0.1-1-0.3-0.9-0.9c0-0.4,0.1-0.8,0.2-1.1c1.9-6.6,3.9-13.3,5.7-20
		c0.5-2,1.6-2.6,3.5-3c30.2-6.5,56.1-21,77.4-43.4c16.5-17.3,28.3-37.4,34.9-60.5c1.3-4.5,0.4-4.3,5.5-3.9c1.3,0.1,2.6,0.2,3.9,0.3
		C415.3,254.1,415.3,254,415.3,254z"/>
	<path class="st2" d="M386.2,217c0.1-4.3,0.7-8.6,2.1-12.7c4.2-12.2,14.8-19.8,27.6-20.1c3.7-0.1,7.3,0.1,10.9,1.2
		c11.2,3.3,17.9,10.9,20.3,22.2c1.5,6.9,0.8,13.8-1.5,20.5c-3.5,9.9-10.2,16.7-20.5,19.3c-7.3,1.9-14.6,1.3-21.5-1.7
		c-9.2-4-14.5-11.3-16.7-20.9C386.4,222.2,386.1,219.6,386.2,217z M416.7,195.8c-4.6-0.1-8.7,2.1-11.8,6.3c-1.3,1.7-2.2,3.5-2.9,5.5
		c-1.1,3.5-1.7,7.1-1.6,10.8c0.2,4,1,7.8,3.1,11.2c1.8,3,4.3,5.3,7.7,6.4c7.7,2.5,16,0.4,20.1-8.8c0.4-0.8,0.7-1.7,1-2.6
		c1.5-5.2,1.9-10.6,0.7-15.9C431.3,201,426.4,195.7,416.7,195.8z"/>
	<path class="st2" d="M297.3,313.9c-0.5-0.1-1-0.2-1.5-0.2c-0.6-0.1-1-0.4-1-1c-0.1-0.5-0.1-1-0.1-1.6c0.2-12.8,0.4-25.5,0.7-38.3
		c0.1-3.1,0.2-6.2,0.3-9.4c0.1-2.2,0.2-2.3,2.6-2.3c4.7,0.1,9.4,0.2,14.1,0.3c4.1,12.1,8.4,24.2,11.9,36.5c0.1,0.3,0.3,0.8,0.5,0.9
		c0.6,0.2,0.8-0.4,1-0.9c3.9-10.8,8.5-21.3,12.8-32c0.3-0.7,0.6-1.4,0.9-2.2c0.3-0.8,0.8-1.3,1.8-1.3c4.4,0.2,8.9,0.3,13.3,0.5
		c1.4,0.1,1.7,0.5,1.7,2c0,0.4,0,0.8,0,1.2c-0.6,12.4-1.2,24.8-1.8,37.2c-0.2,3.4-0.3,6.8-0.5,10.2c-0.1,1.6-0.3,1.9-1.8,1.9
		c-2.5,0-5-0.1-7.4-0.2c-1.7-0.1-2-0.4-1.9-2.2c0.1-4.7,0.3-9.4,0.5-14.1c0.3-7.2,0.8-14.4,1.1-21.5c0-0.8,0-1.6,0-3
		c-0.8,2.2-1.4,3.8-2.1,5.5c-4.3,10.7-8.6,21.3-12.9,32c-0.1,0.4-0.4,0.7-0.5,1.1c-0.3,1.2-1.1,1.7-2.3,1.7
		c-1.8-0.1-3.7-0.2-5.5-0.1c-1.5,0-2.1-0.7-2.5-2c-1.8-5.6-3.7-11.2-5.6-16.7c-1.8-5.3-3.7-10.6-5.6-15.9c-0.5-2.5-1-4.9-2-7.7
		c0,4.4,0,8.4,0,12.4c-0.1,5.3-0.3,10.6-0.4,16c-0.1,3.9-0.2,7.8-0.4,11.7c-0.1,1.3-0.4,1.5-1.7,1.6
		C301.2,313.9,299.2,313.9,297.3,313.9z"/>
	<path class="st2" d="M164.2,213.3c0.4,9.1,0.7,18.3,1.1,27.4c0,0.5,0.1,1,0,1.6c0,0.9-0.5,1.5-1.4,1.5c-1.2,0.1-2.4,0.1-3.5,0.1
		c-0.8,0-1.6,0.1-2.4,0.1c-1.9-0.1-3.9,0.7-5.7-0.2c-0.6-1.9-0.5-3.9-0.6-5.8c-0.6-13.6-1.2-27.2-1.8-40.7c0-0.7,0-1.3-0.1-2
		c-0.1-1.3-0.4-1.7-1.6-1.7c-3.3,0.1-6.5,0.2-9.8,0.4c-1.5,0.1-1.8,0.4-1.9,1.9c-0.5,4.9-1,9.9-1.6,14.8c-0.9,7.6-1.9,15.3-3.8,22.8
		c-0.5,2-1.2,4-2.2,5.9c-2.2,4.2-5.7,6.8-10.4,7.5c-2.6,0.4-5.2,0.4-7.8-0.3c-1-0.3-1.5-0.8-1.6-1.9c-0.1-2.3-0.3-4.7-0.4-7
		c-0.1-1.7,0-1.8,1.7-1.6c0.7,0.1,1.3,0.1,2,0.2c2,0.1,3.5-0.8,4.6-2.5c0.9-1.4,1.5-3,1.9-4.7c1.2-4.6,2.1-9.2,2.6-13.8
		c1.1-9.5,2.1-19,3.1-28.4c0.1-0.5,0.1-1,0.1-1.6c0.2-1.3,0.4-1.6,1.7-1.7c2.5-0.2,5-0.4,7.4-0.5c8.4-0.4,16.7-0.7,25.1-1
		c0.9,0,1.8-0.1,2.7,0c0.7,0,1.2,0.5,1.2,1.3c0.1,0.9,0.1,1.8,0.1,2.7C163.5,195,163.8,204.2,164.2,213.3z"/>
	<path class="st3" d="M259.4,201.6c-1.7,2.2-3.4,4.3-5.1,6.5c-1.1,1.4-1.1,1.5,0.1,3.1c5.1,6.8,10.2,13.6,15.2,20.5
		c2.3,3,4.5,6.1,6.7,9.2c0.5,0.7,0.2,1.3-0.7,1.3c-4.3,0-8.6-0.1-12.9,0c-1.8,0-2.8-0.8-3.8-2.2c-5.2-7.5-10.5-15-15.7-22.5
		c-0.8-1.2-1.6-2.4-2.5-3.5c-0.1-0.2-0.4-0.2-0.7-0.2c-0.3,0-0.4,0.2-0.4,0.5c0,1.4,0.1,2.9,0.1,4.3c0.1,6.9,0.1,13.9,0.2,20.8
		c0,0.4,0,0.8,0,1.2c-0.1,1.2-0.5,1.7-1.7,1.7c-3.3,0.1-6.5,0.1-9.8,0.1c-1.4,0-1.8-0.4-1.8-1.9c-0.1-5.4-0.3-10.7-0.3-16.1
		c-0.1-8.1-0.2-16.2-0.3-24.3c0-0.9-0.1-1.8-0.2-2.7c0.2-1.7,0.2-3.3,0-5c0.1-0.9,0.1-1.8,0.1-2.7c0-2.4-0.1-4.7,0-7.1
		c0-2,0.2-2.2,2.3-2.2c2.5-0.1,5,0,7.4-0.1c3.5-0.1,3.5-0.1,4,3.3c0,7.6,0,15.1,0,22.7c0,0.3,0.2,0.8,0.4,1c0.6,0.4,0.9-0.2,1.1-0.6
		c5.3-7.6,10.5-15.2,15.8-22.8c3.1-4.4,1.9-3.7,7.2-3.8c3,0,6,0,9,0.1c0.6,0,1.3-0.2,1.9,0.4c0.1,1.2-0.9,1.8-1.5,2.6
		c-4,5.2-8,10.3-11.9,15.5c-0.5,0.7-1.4,1.2-1.1,2.3c0,0,0,0,0,0C259.9,200.6,259.7,201.2,259.4,201.6z"/>
	<path class="st2" d="M349.8,181.7c3,0.1,6,0.2,9,0.3c3.4,0.1,6.8,0.6,10,1.6c2.9,0.9,5.5,2.3,7.8,4.4c2.7,2.6,4.1,5.7,4.6,9.3
		c2,12.4-5.4,22.6-17.8,24.7c-3.2,0.5-6.5,0.5-9.8,0.3c-4.8-0.3-4.8-0.7-5,4.3c-0.2,4.4-0.3,8.9-0.4,13.3c0,0.9-0.1,1.8-0.2,2.7
		c-0.1,0.6-0.5,0.9-1.1,1c-1,0-2.1,0-3.1-0.1c-2.5-0.1-5-0.2-7.4-0.3c-1.3-0.1-1.5-0.4-1.6-1.7c0-0.5,0-1,0-1.6
		c0.6-17,1.1-34,1.7-50.9c0.1-2,0.1-3.9,0.2-5.9c0.1-1.7,0.3-2,2.2-1.9c3,0.1,6,0.2,9,0.3C348.5,181.6,349.2,181.6,349.8,181.7
		C349.8,181.7,349.8,181.7,349.8,181.7z M349.6,202.1c-0.1,0-0.2,0-0.3,0c0,2.7,0,5.5,0,8.2c0,0.9,0.4,1.5,1.3,1.5
		c2.6,0,5.2,0.4,7.8,0.1c5.3-0.5,8.8-3.9,8.8-10c0-4.8-2.3-7.9-6.9-9.2c-2.9-0.8-5.9-0.7-8.9-0.8c-1,0-1.4,0.5-1.4,1.4
		C349.9,196.4,349.7,199.3,349.6,202.1z"/>
	<path class="st2" d="M80.2,223.2c0.3,4.1,0.6,8.4,0.9,12.6c0.1,1.1,0.7,1.5,1.9,1.5c4.3-0.3,8.6-0.6,12.9-0.9
		c2.5-0.2,5-0.3,7.4-0.4c0.9,0,1.5,0.4,1.6,1.3c0,0.5,0.1,1,0.1,1.6c-0.1,2.5,0.6,4.9,0.1,7.4c-2.3,1.3-4.8,0.6-7.2,0.8
		c-8.7,0.8-17.5,1.4-26.2,2c-0.5,0-1,0.1-1.6,0.1c-1,0.1-1.4-0.5-1.5-1.4c-0.1-0.4-0.1-0.8-0.1-1.2c-0.6-7.6-1.2-15.1-1.7-22.7
		c-0.7-8.6-1.4-17.2-2-25.8c-0.2-3.1-0.5-6.3-0.7-9.4c-0.1-1,0.3-1.4,1.4-1.5c5.9-0.5,11.7-1,17.6-1.4c4.3-0.3,8.6-0.6,12.9-0.9
		c0.9-0.1,1.8-0.1,2.7-0.1c0.9,0,1.6,0.3,1.6,1.3c0.2,2.7,0.3,5.5,0.5,8.2c0,1-0.6,1.3-1.5,1.4c-4.8,0.3-9.6,0.6-14.5,0.9
		c-1.7,0.1-3.4,0.3-5.1,0.4c-0.7,0.1-1.2,0.5-1.2,1.3c0.1,1.7,0.2,3.4,0.3,5.1c0.2,2.2,0.4,4.4,0.5,6.6c0.1,0.9,0.5,1.4,1.5,1.4
		c1-0.1,2.1-0.1,3.1-0.2c4.7-0.3,9.4-0.7,14.1-1c0.4,0,0.8,0,1.2,0c0.6,0.1,0.9,0.4,1.1,1c0,0.1,0.1,0.3,0.1,0.4c0,3,0.6,6,0.2,9
		c-2.7,1-5.6,0.8-8.4,1c-3.2,0.3-6.5,0.5-9.8,0.7C81.6,222.6,81,222.6,80.2,223.2z"/>
	<path class="st3" d="M191.9,197.1c-0.1,0.4-0.2,0.8-0.1,1.2c0.1,2.5,0,5,0.6,7.4c2.4,1.1,4.9,0.3,7.3,0.3c3.7,0,7.3-0.2,11-0.3
		c2,0,2.1,0.2,2.2,2.3c0.1,2.2,0.1,4.4,0.1,6.7c0,1.6-0.2,1.8-1.8,1.9c-4.8,0.2-9.7,0.3-14.5,0.4c-4.7,0.1-4.3-0.2-4.2,4.2
		c0,2.4,0.1,4.7,0.2,7.1c0.1,3.7,0.2,3.7,3.7,3.6c4.6-0.1,9.1-0.3,13.7-0.4c1.9,0,3.9-0.4,5.8,0.2c1.1,1.9,0.4,4.1,0.6,6.1
		c0.1,0.9,0.1,1.8,0,2.7c0,1.5-0.3,1.7-1.9,1.8c-0.1,0-0.3,0-0.4,0c-10.5,0.3-20.9,0.5-31.4,0.8c-3.1,0.1-3.1,0-3.2-2.9
		c-0.1-3.8-0.2-7.6-0.7-11.3c-0.1-5.7-0.1-11.5-0.2-17.2c-0.2-6.8-0.4-13.6-0.7-20.3c-0.1-2.5-0.2-5-0.3-7.4c-0.1-2.6,0-2.7,2.5-2.8
		c2.6-0.1,5.2-0.2,7.8-0.3c0,0-0.1,0-0.1,0c0.6-0.1,1.3-0.1,1.9-0.2c4.8-0.1,9.6-0.2,14.4-0.2c2.7,0,5.5-0.1,8.2-0.1
		c0.9,0,1.5,0.4,1.5,1.3c0.1,2.7,0.1,5.5,0.1,8.2c0,0.7-0.4,1.2-1.2,1.3c-1,0.1-2.1,0.1-3.1,0.1c-5.2,0.1-10.4,0.2-15.6,0.3
		c-0.7,0-1.6-0.2-2.2,0.5C191.3,193.7,191.6,195.4,191.9,197.1z"/>
	<path class="st4" d="M207.7,103.8c-0.3-1.1,0.1-2.1,0.4-3.1c1.3-6.1,2.7-12.2,4.1-18.3c0.6-2.4,0.7-2.5,3.1-2.6c0.5,0,1,0,1.6,0
		c18.7,0,37.3,0,56,0c1.2,0,2.3,0,3.3,0c1,1,0.4,1.7,0.1,2.3c-2.3,6.6-4.8,13.3-7.1,19.9c-0.6,1.7-1.5,2.1-3.2,2.1
		c-7.8-0.1-15.7,0-23.5,0c-10.3,0-20.6,0-30.9,0C210.2,104.2,208.9,104.5,207.7,103.8z"/>
	<path class="st4" d="M201,132.9c0-0.6,0-1.3,0.1-1.9c1.4-6.4,3-12.7,4.4-19.1c0.7-3.1,1.5-2.8,3.7-2.8c13.6,0,27.2,0,40.8,0
		c4.3,0,8.6,0,12.9,0c0.8,0,1.6,0,2.3,0.1c0.6,0.1,0.9,0.6,0.8,1.1c-0.1,0.5-0.2,1-0.4,1.5c-2.3,6.5-4.7,13-7,19.5
		c-0.5,1.4-1.2,2.2-2.8,2.1c-1.7-0.1-3.4,0-5.1,0c-15.2,0-30.3,0-45.5,0C203.8,133.4,202.3,133.8,201,132.9z"/>
	<path class="st4" d="M255.8,139.1c-1.1,2.9-2,5.6-3,8.3c-1.6,4.6-3.3,9.1-4.9,13.7c-0.4,1.3-1.2,2-2.6,1.9c-0.5,0-1,0-1.6,0
		c-15.4,0-30.9,0-46.3,0c-4.3,0-3.6-0.3-2.8-3.7c1.4-6.1,2.7-12.2,4.1-18.3c0.5-2.1,0.7-2.3,2.9-2.3c6.4,0,12.8,0,19.2,0
		c10.2,0,20.4,0,30.6,0C252.8,138.6,254.1,138.4,255.8,139.1z"/>
	<path class="st3" d="M312.2,180.3c4.3,0.2,8.6,0.4,12.9,0.6c0.7,0,1.3,0.1,2,0.1c0.6,0.1,1,0.4,1,1c0,2.9-0.1,5.7-0.2,8.6
		c0,0.8-0.7,1.1-1.4,1.1c-1.2,0-2.3-0.1-3.5-0.1c-3.5-0.1-7-0.2-10.6-0.3c-2.4,0-2.5,0.1-2.6,2.3c-0.1,3.1-0.3,6.3-0.3,9.4
		c-0.1,7.7-0.2,15.4-0.4,23.1c-0.1,4.7-0.3,9.4-0.4,14.1c-0.1,1.9-0.2,2.1-2,2.1c-3.1,0-6.3,0-9.4-0.1c-1.7,0-2-0.3-1.9-2.2
		c0-3.5,0.1-7.1,0.2-10.6c0.2-11.8,0.4-23.5,0.5-35.3c0-0.4,0-0.8,0-1.2c-0.1-1.7-0.2-1.9-1.7-1.9c-3.1-0.1-6.3-0.3-9.4,0
		c-1.8-0.1-3.6-0.2-5.5-0.4c-0.9-0.1-1.4-0.5-1.4-1.5c0-2.6,0-5.2,0.1-7.8c0-1,0.6-1.4,1.5-1.4c2.5,0,5,0,7.5,0.1
		c7.6,0.1,15.2,0.2,22.8,0.3C310.6,180.4,311.4,180.3,312.2,180.3z"/>
	<path class="st2" d="M208.2,273.8c0.6-2.6,0-5.2,0-7.8c0-5.4-0.5-4.7,4.8-4.8c3.1-0.1,6.3-0.1,9.4-0.1c4.8-0.1,9.6-0.2,14.4,0.9
		c0.9,0.5,1.9,0.9,2.8,1.4c3.8,2,6.1,5.2,7,9.4c2.9,14.1-7.2,20.9-15.9,22.1c-2.5,0.3-5,0.3-7.4,0.4c-2.6,0.1-2.7,0.2-2.7,2.7
		c0,4.1,0.1,8.1,0.2,12.1c0,3.7,0.1,3.7-3.7,3.6c-2.4-0.1-4.9,0.7-7.3-0.4c-0.6-2.3-0.4-4.7-0.5-7c-0.3-9.5-0.4-19.1-0.6-28.6
		C208.5,276.4,208.3,275.1,208.2,273.8z M219.9,277.8c0.1,0,0.1,0,0.2,0c0,2.4,0,4.7,0,7.1c0,1.3,0.4,1.8,1.6,1.7
		c2.2,0,4.4-0.1,6.6-0.3c2.1-0.3,4-1.3,5.2-3.1c3.6-5.3,0.6-12.3-5.8-13.1c-2.2-0.3-4.4-0.1-6.6-0.1c-0.7,0-1.2,0.5-1.2,1.2
		C219.8,273.3,219.9,275.5,219.9,277.8z"/>
	<path class="st3" d="M264.4,260.6c5.3,0.1,10.7,0.3,16,0.4c5.9,0.2,5.1-0.7,5.1,5.3c0,4.1,0.3,3.9-3.8,3.8c-4.4,0-8.9-0.1-13.3-0.1
		c-1.7,0-2.1,0.3-2.1,2.1c-0.1,2.9-0.1,5.7,0,8.6c0,1.3,0.4,1.6,1.7,1.7c4,0.1,8.1,0.1,12.1,0.1c4,0,3.9-0.2,3.8,3.8
		c-0.1,6.4,0.7,5.4-5.4,5.4c-3.5,0-7-0.1-10.6,0c-1.3,0-1.7,0.4-1.7,1.6c0,3.1,0,6.3,0,9.4c0,1.2,0.4,1.5,1.7,1.6
		c4.4,0.1,8.9,0.1,13.3,0.1c0.9,0,1.8,0,2.7,0c2,0.1,2.2,0.2,2.2,2.3c0,1.7,0,3.4-0.1,5.1c-0.1,1.5-0.4,1.8-1.9,1.8
		c-4.2,0-8.4-0.1-12.5-0.1c-5-0.1-9.9-0.1-14.9-0.2c-1.6,0-1.7-0.2-1.8-1.8c-0.1-1.2-0.1-2.3-0.2-3.5c0.1-1.6,0.2-3.1,0.2-4.7
		c0-12.5,0-25.1,0-37.6c0-1,0-2.1,0-3.1c0.1-1.3,0.4-1.7,1.6-1.7c1.6-0.1,3.1,0,4.7,0C262.3,260.7,263.3,260.6,264.4,260.6z"/>
	<path class="st2" d="M170.5,265.1c1.7-0.7,3.3-1.6,5-2.2c7-2.4,14.1-2.3,21.2-0.8c1.6,0.3,1.9,0.8,1.9,2.4c0.1,2.5,0.2,5,0.2,7.4
		c0,0.7-0.6,1.2-1.3,0.9c-2.1-0.9-4.2-1.4-6.4-1.8c-3.2-0.6-6.3-0.4-9.3,0.4c-6.6,1.9-10.3,6.4-11.5,13c-0.3,1.7-0.5,3.4,0,5.1
		c-0.2,4.1,1.2,7.7,3.8,10.8c3.5,4.2,8.1,5.5,13.3,5.2c3.4-0.2,6.7-0.9,9.8-2.4c0.7-0.3,1.4-0.6,2-0.9c0.3,0.4,0.5,0.6,0.5,0.9
		c0.1,2.5,0.1,5,0.2,7.4c0,0.3,0,0.5,0,0.8c-0.1,0.6-0.4,1-0.9,1.2c-0.6,0.3-1.2,0.6-1.8,0.8c-6.4,2.2-13.1,2.8-19.7,1.5
		c-9.8-1.9-15.9-8-18.5-17.6c-1.3-5-1.4-10.1-0.4-15.2c1.2-6,4.3-10.9,9-14.8C168.7,266.5,169.6,265.8,170.5,265.1z"/>
	<path class="st4" d="M192,192.1c0.6-0.8,1.4-0.5,2.2-0.5c5.2-0.1,10.4-0.2,15.6-0.3c1,0,2.1,0,3.1-0.1c0.8-0.1,1.2-0.6,1.2-1.3
		c0-2.7,0-5.5-0.1-8.2c0-1-0.7-1.3-1.5-1.3c-2.7,0-5.5,0-8.2,0.1c-4.8,0.1-9.6,0.1-14.4,0.2c0.8-3.8,1.7-7.6,2.5-11.5
		c0.2-0.9,0.8-1.3,1.6-1.4c0.8,0,1.6,0,2.3,0c14.9,0,29.8,0,44.6,0c0.9,0,1.8,0,2.7,0.1c0.9,0.1,1.3,0.6,1.1,1.6
		c0,0.1-0.1,0.3-0.1,0.4c-1.7,4.5-3,9.2-5.1,13.5c-0.4-3.5-0.4-3.4-4-3.3c-2.5,0.1-5,0-7.4,0.1c-2.1,0.1-2.3,0.2-2.3,2.2
		c0,2.4,0.1,4.7,0,7.1c0,0.9-0.1,1.8-0.1,2.7C214.5,192.1,203.3,192.1,192,192.1z"/>
	<path class="st4" d="M214.5,71.4c5.4-2.2,11.2-3.5,16.9-4.7c12.4-2.7,24.9-3.8,37.6-3.2c3.8,0.2,7.5,0.6,11.3,0.9
		c0.8,0.1,1.5,0.4,2.2,0.6c-1,2.8-2,5.7-3,8.5c-0.3,1-1,1.5-2.1,1.4c-0.8,0-1.6,0-2.3,0c-18.9,0-37.8,0-56.8,0c-0.7,0-1.3,0-2,0
		c-1.6,0-2.3-0.2-2-2.4C214.4,72.2,214.4,71.8,214.5,71.4z"/>
	<path class="st4" d="M305.5,284.6c0-4,0-8,0-12.4c0.9,2.8,1.5,5.2,2,7.7C306.9,281.4,306.2,283,305.5,284.6z"/>
	<path class="st4" d="M187.9,180.8C187.9,180.8,188,180.8,187.9,180.8C188,180.8,187.9,180.8,187.9,180.8z"/>
	<path class="st5" d="M259.4,201.6c0.3-0.5,0.5-1,1.2-0.9C260.7,201.7,260,201.6,259.4,201.6z"/>
</g>
</svg>
